<!-- created by svgstack.com | Attribution is required. --><svg width="201" height="198" viewBox="0 0 201 198" fill="none" xmlns="http://www.w3.org/2000/svg"><g clip-path="url(#clip0_106_2177)"><path d="M170.191 167.56H141.1V122.002C141.1 111.139 140.906 97.1537 125.97 97.1537C110.818 97.1537 108.5 108.99 108.5 121.211V167.557H79.4091V73.8719H107.336V86.6749H107.727C110.522 81.8964 114.561 77.9652 119.413 75.3003C124.265 72.6352 129.75 71.3364 135.282 71.5416C164.767 71.5416 170.203 90.9355 170.203 116.166L170.191 167.56ZM46.5849 61.0658C43.2461 61.0664 39.9818 60.077 37.2055 58.2225C34.4288 56.3679 32.2646 53.7319 30.9864 50.6473C29.708 47.5628 29.3731 44.1685 30.0239 40.8937C30.6746 37.6188 32.2818 34.6103 34.6424 32.2488C37.0031 29.8876 40.0106 28.2792 43.2855 27.6272C46.56 26.9752 49.9546 27.309 53.0394 28.5861C56.1246 29.8633 58.7615 32.0267 60.617 34.8025C62.4724 37.5782 63.4631 40.8422 63.4637 44.1809C63.464 46.3979 63.0279 48.5934 62.1797 50.6416C61.3318 52.69 60.0885 54.5512 58.5212 56.1191C56.954 57.687 55.0931 58.9309 53.0452 59.7797C50.997 60.6285 48.8018 61.0655 46.5849 61.0658ZM61.1303 167.56H32.0091V73.8719H61.1303V167.56ZM184.694 0.287084H17.391C13.5937 0.244231 9.93466 1.7107 7.21803 4.36425C4.50142 7.0178 2.94942 10.6413 2.90308 14.4386V182.435C2.94783 186.235 4.49888 189.861 7.21539 192.517C9.93194 195.173 13.5918 196.643 17.391 196.602H184.694C188.501 196.65 192.171 195.185 194.898 192.529C197.625 189.872 199.187 186.242 199.239 182.435V14.4265C199.185 10.6217 197.623 6.99404 194.895 4.34056C192.168 1.68707 188.499 0.224782 184.694 0.274962V0.287084Z" fill="#0A66C2"/></g><defs><clipPath id="clip0_106_2177"><rect width="200" height="196.97" fill="white" transform="translate(0.239502 0.275177)"/></clipPath></defs></svg> 